<?xml version="1.0" encoding="utf-8"?>
<!-- Generator: Adobe Illustrator 18.1.1, SVG Export Plug-In . SVG Version: 6.00 Build 0)  -->
<svg version="1.1" id="Layer_1" xmlns="http://www.w3.org/2000/svg" xmlns:xlink="http://www.w3.org/1999/xlink" x="0px" y="0px"
	 viewBox="-386.7 259.4 43.3 43.3" enable-background="new -386.7 259.4 43.3 43.3" xml:space="preserve">
<g>
	<g>
		<g>
			<path fill="#FFFFFF" d="M-348,302.7c-1.3,0-3.1-0.4-5.3-1.3c-3.6-1.5-7.9-4.3-12.4-8l-1.1-0.9l1.1-0.9c2-1.7,4-3.5,5.9-5.4
				c0.4-0.4,1.2-0.4,1.6,0c0.4,0.4,0.4,1.2,0,1.6c-1.6,1.6-3.3,3.2-5,4.7c8.8,7,15.3,9,17,7.3c1.8-1.8-0.5-8.7-8.2-18.1
				c-0.4-0.5-0.3-1.2,0.2-1.6c0.5-0.4,1.2-0.3,1.6,0.2c3.7,4.4,6.4,8.7,8,12.4c2.2,5.1,1.2,7.6,0.1,8.8
				C-345.3,302.1-346.3,302.7-348,302.7z"/>
		</g>
		<g>
			<path fill="#FFFFFF" d="M-376.5,282.2c-0.3,0-0.7-0.1-0.9-0.4c-3.7-4.4-6.4-8.7-8-12.4c-2.2-5.1-1.2-7.6-0.1-8.8
				c1.2-1.2,3.6-2.1,8.8,0.1c3.6,1.5,7.9,4.3,12.4,8l1.1,0.9l-1.1,0.9c-2,1.7-4,3.5-5.9,5.4c-0.4,0.4-1.2,0.4-1.6,0
				c-0.4-0.4-0.4-1.2,0-1.6c1.6-1.6,3.3-3.2,5-4.7c-8.8-7-15.3-9-17-7.3c-1.8,1.8,0.5,8.7,8.2,18.1c0.4,0.5,0.3,1.2-0.2,1.6
				C-376,282.1-376.3,282.2-376.5,282.2z"/>
		</g>
		<g>
			<path fill="#FFFFFF" d="M-353.5,282.8l-0.9-1.1c-1.7-2-3.5-4-5.4-5.9c-0.4-0.4-0.4-1.2,0-1.6c0.4-0.4,1.2-0.4,1.6,0
				c1.6,1.6,3.2,3.3,4.7,5c7-8.8,9-15.3,7.3-17c-1.8-1.8-8.7,0.5-18.1,8.2c-0.5,0.4-1.2,0.3-1.6-0.2c-0.4-0.5-0.3-1.2,0.2-1.6
				c4.4-3.7,8.7-6.4,12.4-8c5.1-2.2,7.6-1.2,8.8-0.1c1.2,1.2,2.1,3.6-0.1,8.8c-1.5,3.6-4.3,7.9-8,12.4L-353.5,282.8z"/>
		</g>
		<g>
			<path fill="#FFFFFF" d="M-382,302.7c-1.7,0-2.8-0.6-3.4-1.2c-1.2-1.2-2.1-3.6,0.1-8.8c1.5-3.6,4.3-7.9,8-12.4l0.9-1.1l0.9,1.1
				c1.7,2,3.5,4,5.4,5.9c0.4,0.4,0.4,1.2,0,1.6c-0.4,0.4-1.2,0.4-1.6,0c-1.6-1.6-3.2-3.3-4.7-5c-7,8.8-9,15.3-7.3,17
				c1.8,1.8,8.7-0.5,18.1-8.2c0.5-0.4,1.2-0.3,1.6,0.2c0.4,0.5,0.3,1.2-0.2,1.6c-4.4,3.7-8.7,6.4-12.4,8
				C-378.9,302.3-380.6,302.7-382,302.7z"/>
		</g>
		<g>
			<path fill="#FFFFFF" d="M-353.5,281"/>
		</g>
		<g>
			<path fill="#FFFFFF" d="M-365,293.6c-0.3,0-0.7-0.1-0.9-0.4c-0.4-0.5-0.3-1.2,0.2-1.6c2-1.7,4-3.5,5.9-5.4c0.4-0.4,1.2-0.4,1.6,0
				c0.4,0.4,0.4,1.2,0,1.6c-2,2-4,3.9-6.1,5.6C-364.5,293.6-364.8,293.6-365,293.6z"/>
		</g>
		<g>
			<path fill="#FFFFFF" d="M-371,288.2c-0.3,0-0.6-0.1-0.8-0.3c-2-2-3.9-4-5.6-6.1c-0.4-0.5-0.3-1.2,0.2-1.6
				c0.5-0.4,1.2-0.3,1.6,0.2c1.7,2,3.5,4,5.4,5.9c0.4,0.4,0.4,1.2,0,1.6C-370.4,288.1-370.7,288.2-371,288.2z"/>
		</g>
		<g>
			<path fill="#FFFFFF" d="M-371,275"/>
		</g>
		<g>
			<path fill="#FFFFFF" d="M-365,269.5"/>
		</g>
	</g>
	<g>
		<path fill="#FFFFFF" d="M-365,285.3c-2.3,0-4.2-1.9-4.2-4.2s1.9-4.2,4.2-4.2s4.2,1.9,4.2,4.2S-362.7,285.3-365,285.3z M-365,279
			c-1.1,0-2,0.9-2,2c0,1.1,0.9,2,2,2s2-0.9,2-2C-363,279.9-363.9,279-365,279z"/>
	</g>
</g>
</svg>
