<?xml version="1.0" encoding="UTF-8" standalone="no"?>
<svg width="30px" height="30px" viewBox="0 0 30 30" version="1.1" xmlns="http://www.w3.org/2000/svg" xmlns:xlink="http://www.w3.org/1999/xlink" xmlns:sketch="http://www.bohemiancoding.com/sketch/ns">
    <!-- Generator: Sketch 3.2.1 (9977) - http://www.bohemiancoding.com/sketch -->
    <title>Logo</title>
    <desc>Created with Sketch.</desc>
    <defs></defs>
    <g id="Page-1" stroke="none" stroke-width="1" fill="none" fill-rule="evenodd" sketch:type="MSPage">
        <g id="Zero-State" sketch:type="MSArtboardGroup" transform="translate(-39.000000, -24.000000)">
            <g id="Logo" sketch:type="MSLayerGroup" transform="translate(39.000000, 24.000000)">
                <path d="M26.7855652,30 C25.8641739,30 24.6688696,29.755 23.1195652,29.0984211 C20.6162609,28.0373684 17.6796522,26.1286842 14.6274783,23.5784211 L13.899913,22.9702632 L14.6277391,22.3621053 C16.0048696,21.2115789 17.3762609,19.9492105 18.7038261,18.6105263 C19.0095652,18.3021053 19.5046957,18.3021053 19.8104348,18.6105263 C20.1161739,18.9189474 20.1161739,19.4186842 19.8104348,19.7268421 C18.6824348,20.8647368 17.5226087,21.9489474 16.3536522,22.9594737 C22.3912174,27.8286842 26.8497391,29.2278947 28.0395652,28.0284211 C29.276087,26.7807895 27.7278261,21.9681579 22.4225217,15.5063158 C22.1467826,15.1705263 22.1932174,14.6726316 22.5258261,14.3944737 C22.8594783,14.1157895 23.3522609,14.1634211 23.628,14.4986842 C26.1555652,17.5776316 28.0476522,20.5397368 29.1,23.0652632 C30.5848696,26.6305263 29.9449565,28.3392105 29.1464348,29.1447368 C28.6977391,29.5978947 27.9667826,29.9997368 26.7855652,30" id="Fill-1" fill="#000000" sketch:type="MSShapeGroup"></path>
                <path d="M7.22921739,15.7928947 C7.00408696,15.7928947 6.78078261,15.6955263 6.62608696,15.5068421 C4.09826087,12.4281579 2.20643478,9.46578947 1.15434783,6.94052632 C-0.330521739,3.37526316 0.309652174,1.66684211 1.10817391,0.861578947 C1.90643478,0.0557894737 3.6,-0.590263158 7.13478261,0.908157895 C9.63808696,1.96921053 12.5744348,3.87763158 15.6266087,6.42763158 L16.3541739,7.03578947 L15.6266087,7.64394737 C14.2489565,8.795 12.8775652,10.0571053 11.5505217,11.3955263 C11.2447826,11.7039474 10.7496522,11.7039474 10.443913,11.3955263 C10.1381739,11.0871053 10.1381739,10.5873684 10.443913,10.2792105 C11.5716522,9.14184211 12.7314783,8.05736842 13.9004348,7.04657895 C7.86286957,2.17710526 3.40434783,0.777894737 2.21478261,1.97789474 C0.97826087,3.22526316 2.52652174,8.03789474 7.83156522,14.5 C8.10730435,14.8355263 8.06086957,15.3334211 7.728,15.6115789 C7.58191304,15.7334211 7.40504348,15.7928947 7.22921739,15.7928947" id="Fill-2" fill="#000000" sketch:type="MSShapeGroup"></path>
                <path d="M23.0253913,16.2407895 L22.4225217,15.5065789 C21.282,14.1173684 20.0308696,12.7339474 18.7038261,11.395 C18.398087,11.0865789 18.398087,10.5868421 18.7038261,10.2786842 C19.0095652,9.97026316 19.5046957,9.97026316 19.8104348,10.2786842 C20.9381739,11.4163158 22.0129565,12.5863158 23.0146957,13.7655263 C27.8418261,7.675 29.2286087,3.17763158 28.0395652,1.97763158 C26.8022609,0.729473684 22.0314783,2.29184211 15.6263478,7.64368421 C15.2929565,7.92210526 14.8001739,7.87473684 14.5241739,7.53947368 C14.2484348,7.20368421 14.2948696,6.70578947 14.6274783,6.42763158 C17.6801739,3.87763158 20.6165217,1.96921053 23.1198261,0.907894737 C26.654087,-0.590263158 28.347913,0.0557894737 29.1464348,0.861052632 C29.9449565,1.66631579 30.5851304,3.375 29.1,6.94026316 C28.047913,9.46578947 26.1558261,12.4278947 23.628,15.5068421 L23.0253913,16.2407895" id="Fill-3" fill="#000000" sketch:type="MSShapeGroup"></path>
                <path d="M3.46826087,30 C2.28730435,30 1.5566087,29.5981579 1.10791304,29.1455263 C0.309130435,28.3397368 -0.330782609,26.6310526 1.15434783,23.0660526 C2.20643478,20.5410526 4.09826087,17.5786842 6.62608696,14.5 L7.22895652,13.7657895 L7.83182609,14.4997368 C8.97208696,15.8884211 10.2232174,17.2718421 11.5507826,18.6113158 C11.8565217,18.9197368 11.8565217,19.4194737 11.5507826,19.7276316 C11.2450435,20.0360526 10.7493913,20.0360526 10.4441739,19.7276316 C9.31591304,18.5894737 8.24113043,17.4197368 7.23965217,16.2410526 C2.41252174,22.3313158 1.02547826,26.8292105 2.21478261,28.0292105 C3.45104348,29.2763158 8.22156522,27.715 14.6277391,22.3626316 C14.9611304,22.0842105 15.453913,22.1315789 15.729913,22.4668421 C16.0056522,22.8026316 15.9592174,23.3005263 15.6266087,23.5786842 C12.5744348,26.1284211 9.63808696,28.0373684 7.13478261,29.0986842 C5.58547826,29.755 4.38991304,30 3.46826087,30" id="Fill-4" fill="#000000" sketch:type="MSShapeGroup"></path>
                <path id="Stroke-5" stroke="#000000" stroke-width="6" stroke-linecap="round" sketch:type="MSShapeGroup"></path>
                <path d="M15.1275652,23.76 C14.9024348,23.76 14.6788696,23.6626316 14.5244348,23.4739474 C14.2486957,23.1384211 14.2951304,22.6405263 14.628,22.3623684 C16.0051304,21.2118421 17.3765217,19.9494737 18.704087,18.6107895 C19.0098261,18.3023684 19.5054783,18.3023684 19.8106957,18.6107895 C20.1164348,18.9192105 20.1164348,19.4189474 19.8106957,19.7271053 C18.4486957,21.1010526 17.0410435,22.3968421 15.626087,23.5786842 C15.48,23.7007895 15.3033913,23.76 15.1275652,23.76" id="Fill-6" fill="#000000" sketch:type="MSShapeGroup"></path>
                <path d="M10.9972174,19.9589474 C10.7968696,19.9589474 10.5967826,19.8818421 10.443913,19.7276316 C9.08165217,18.3534211 7.7973913,16.9334211 6.62608696,15.5071053 C6.35034783,15.1713158 6.39678261,14.6734211 6.7293913,14.3952632 C7.06278261,14.1165789 7.55582609,14.1642105 7.83156522,14.4994737 C8.97182609,15.8881579 10.2229565,17.2715789 11.5505217,18.6110526 C11.8562609,18.9194737 11.8562609,19.4192105 11.5505217,19.7273684 C11.3976522,19.8818421 11.1973043,19.9589474 10.9972174,19.9589474" id="Fill-7" fill="#000000" sketch:type="MSShapeGroup"></path>
                <path id="Stroke-8" stroke="#000000" stroke-width="6" stroke-linecap="round" sketch:type="MSShapeGroup"></path>
                <path d="M15.1273043,17.9460526 C13.5185217,17.9460526 12.2097391,16.6257895 12.2097391,15.0028947 C12.2097391,13.38 13.5185217,12.0597368 15.1273043,12.0597368 C16.736087,12.0597368 18.0448696,13.38 18.0448696,15.0028947 C18.0448696,16.6257895 16.736087,17.9460526 15.1273043,17.9460526 L15.1273043,17.9460526 Z M15.1273043,13.6389474 C14.3817391,13.6389474 13.7749565,14.2507895 13.7749565,15.0031579 C13.7749565,15.7555263 14.3814783,16.3673684 15.1273043,16.3673684 C15.8731304,16.3673684 16.4796522,15.7555263 16.4796522,15.0031579 C16.4796522,14.2507895 15.8728696,13.6389474 15.1273043,13.6389474 L15.1273043,13.6389474 Z" id="Fill-9" fill="#000000" sketch:type="MSShapeGroup"></path>
            </g>
        </g>
    </g>
</svg>